<svg version="1.1" id="Layer_1" xmlns="http://www.w3.org/2000/svg" xmlns:xlink="http://www.w3.org/1999/xlink" x="0px" y="0px"
	 width="100%" viewBox="0 0 157 150" enable-background="new 0 0 157 150" xml:space="preserve">
<path fill="#F5F4F2" opacity="1.000000" stroke="none" 
	d="
M1.000000,146.000000 
	C1.000000,127.645775 1.000000,109.291542 1.287439,90.637787 
	C3.334288,91.848717 4.989470,93.505463 6.870277,94.845543 
	C17.849436,102.668159 28.848755,110.463455 39.904499,118.177353 
	C51.895859,126.544060 63.956394,134.811630 76.145142,143.368973 
	C76.828926,143.871094 77.354332,144.126678 78.008949,144.623840 
	C78.425636,145.089447 78.713120,145.313477 78.618813,145.684875 
	C52.491344,145.888168 26.745672,145.944077 1.000000,146.000000 
z"/>
<path fill="#F19C26" opacity="1.000000" stroke="none" 
	d="
M75.986763,143.122437 
	C63.956394,134.811630 51.895859,126.544060 39.904499,118.177353 
	C28.848755,110.463455 17.849436,102.668159 6.870277,94.845543 
	C4.989470,93.505463 3.334288,91.848717 1.287439,90.169128 
	C1.000000,88.611107 1.000000,87.222221 1.332526,85.274979 
	C4.511791,76.809990 7.358531,68.903343 10.418455,61.002674 
	C10.631640,61.008656 11.057009,61.044300 11.201332,61.340446 
	C16.812447,68.279602 22.341438,74.872581 27.733215,81.575920 
	C39.343674,96.010651 50.939999,110.457542 62.424904,124.992065 
	C67.102394,130.911560 71.475288,137.071747 75.986763,143.122437 
z"/>
<path fill="#F5F5F5" opacity="1.000000" stroke="none" 
	d="
M158.000000,99.000000 
	C158.000000,112.687561 158.000000,126.375122 157.595718,140.540924 
	C149.159744,144.627106 149.169373,138.092133 148.380692,132.564102 
	C147.778015,132.790070 147.175339,133.016052 146.572647,133.242020 
	C146.048431,136.161346 145.524216,139.080673 144.595444,141.998871 
	C141.127258,140.998489 138.063629,139.999237 134.784851,138.744995 
	C133.379807,138.660004 132.189911,138.830002 130.635162,139.069305 
	C127.846893,139.759079 125.423447,140.379532 122.717606,140.714508 
	C122.285858,138.464157 122.156395,136.497543 121.983238,134.534790 
	C121.551422,129.640182 119.730484,128.430573 115.299919,130.364853 
	C111.295502,132.113098 107.530937,134.491760 103.422806,135.897491 
	C99.662331,137.184265 98.529610,139.420670 98.600182,143.000000 
	C97.133575,143.000000 96.066788,143.000000 94.658508,143.057922 
	C93.878014,144.076431 93.439011,145.036987 92.666519,145.997742 
	C91.888382,145.997208 91.443733,145.996460 90.999344,145.579102 
	C91.548981,143.445404 91.573532,141.062759 92.747154,140.137283 
	C96.130226,137.469498 99.976845,135.389542 103.878983,132.928879 
	C103.279037,131.943756 102.703392,130.998566 102.247849,129.817902 
	C102.830627,129.357544 103.293312,129.132629 104.201889,128.935760 
	C111.915932,129.024796 116.937553,125.204521 117.030594,119.576004 
	C117.110062,119.548157 117.249100,119.643196 117.675980,119.727417 
	C119.788353,119.217194 121.480537,118.103477 123.158066,118.125137 
	C128.304886,118.191612 129.355652,115.277870 129.128235,110.790298 
	C129.716507,110.336914 130.183807,110.118011 130.931122,109.839592 
	C131.470901,109.512604 131.730637,109.245140 131.994659,108.990143 
	C131.998932,109.002602 131.976089,108.988243 132.186935,108.906342 
	C132.665482,108.669380 132.875519,108.457245 133.171783,107.931633 
	C133.830505,107.425362 134.345352,107.175484 135.178528,107.084488 
	C138.999863,111.401451 141.116577,106.079025 144.000000,106.424904 
	C144.051895,108.162491 143.766968,109.608139 144.222321,110.761536 
	C145.339920,113.592308 147.612930,113.797157 149.719406,112.066124 
	C152.419312,109.847443 152.402069,104.663101 150.039154,101.651352 
	C151.384064,98.886490 152.689850,96.470177 154.269989,94.294693 
	C155.412094,96.243599 154.309219,99.477020 158.000000,99.000000 
M133.178238,121.774300 
	C133.693115,121.362839 134.525024,121.036285 134.662323,120.523682 
	C135.045822,119.091972 135.301880,117.572769 135.206635,116.114334 
	C135.189056,115.845123 132.568222,115.257660 132.379562,115.567192 
	C131.160355,117.567459 130.282562,119.775826 129.292831,121.915962 
	C130.420883,122.058006 131.548950,122.200043 133.178238,121.774300 
M126.545403,122.286110 
	C126.283585,122.011284 126.021767,121.736458 125.759956,121.461624 
	C125.646149,121.570091 125.532341,121.678558 125.418533,121.787025 
	C125.680679,122.061897 125.942825,122.336777 126.545403,122.286110 
z"/>
<path fill="#F5F3F2" opacity="1.000000" stroke="none" 
	d="
M10.205269,60.996693 
	C7.358531,68.903343 4.511791,76.809990 1.332526,84.858322 
	C1.000000,58.979103 1.000000,32.958210 1.468655,6.467190 
	C11.002282,6.018011 20.067255,6.038957 28.941563,6.361326 
	C28.339729,7.182581 27.741093,7.640128 27.544678,8.231309 
	C21.940090,25.100239 16.375931,41.982601 10.587043,59.063148 
	C10.314346,59.841244 10.259808,60.418968 10.205269,60.996693 
z"/>
<path fill="#F5F4F2" opacity="1.000000" stroke="none" 
	d="
M158.000000,72.000000 
	C158.000000,73.066788 158.000000,74.133575 157.714081,75.890640 
	C157.261276,79.440224 157.094406,82.299515 156.673462,84.893494 
	C153.607468,76.740059 150.795563,68.851944 147.994751,60.710747 
	C147.931564,60.305656 147.857285,60.153648 147.797241,59.628426 
	C143.340012,45.910046 138.942688,32.539314 134.355774,19.233944 
	C132.807526,14.742891 130.778717,10.417510 129.440079,6.011554 
	C136.903107,6.004469 143.924759,6.393011 150.878647,5.873921 
	C156.249664,5.472989 157.178635,7.529818 157.107300,12.368095 
	C156.839783,30.511299 156.973862,48.660927 157.044785,66.807808 
	C157.051544,68.539757 157.667084,70.269325 158.000000,72.000000 
z"/>
<path fill="#E6EEF6" opacity="1.000000" stroke="none" 
	d="
M158.000000,71.531342 
	C157.667084,70.269325 157.051544,68.539757 157.044785,66.807808 
	C156.973862,48.660927 156.839783,30.511299 157.107300,12.368095 
	C157.178635,7.529818 156.249664,5.472989 150.878647,5.873921 
	C143.924759,6.393011 136.903107,6.004469 129.138962,6.028382 
	C127.765953,6.079265 127.164619,6.108460 126.052933,6.102726 
	C96.392426,6.045345 67.242233,6.003626 38.092175,6.047908 
	C36.327435,6.050589 34.563740,6.737268 32.490288,7.001286 
	C31.164757,6.617893 30.148493,6.338898 29.132227,6.059902 
	C20.067255,6.038957 11.002282,6.018011 1.468655,5.998532 
	C1.000000,4.336468 1.000000,2.672936 1.000000,1.007054 
	C53.231762,1.004702 105.463524,1.004702 158.000000,1.004702 
	C158.000000,24.353344 158.000000,47.708015 158.000000,71.531342 
z"/>
<path fill="#EDF3F9" opacity="1.000000" stroke="none" 
	d="
M90.999084,145.995728 
	C91.443733,145.996460 91.888382,145.997208 92.999847,145.998627 
	C94.111107,145.999054 94.555557,145.998795 95.399818,145.999100 
	C96.866425,145.999435 97.933212,145.999222 99.468636,145.999329 
	C107.624847,145.999176 115.312424,145.998672 123.468582,145.998840 
	C130.958099,145.999084 137.979050,145.998627 145.463181,145.998749 
	C149.950912,145.999542 153.975449,145.999771 158.000000,146.000000 
	C158.000000,147.661667 158.000000,149.323318 158.000000,150.988739 
	C105.666664,150.992493 53.333332,150.992493 1.000000,150.990204 
	C1.000000,149.658569 1.000000,148.329254 1.000000,146.499954 
	C26.745672,145.944077 52.491344,145.888168 78.896805,145.556244 
	C79.692444,145.127716 79.828293,144.975220 80.178116,144.840805 
	C80.392090,144.858902 80.817825,144.913773 81.202446,145.082794 
	C84.724403,145.499802 87.861748,145.747757 90.999084,145.995728 
z"/>
<path fill="#F5F5F5" opacity="1.000000" stroke="none" 
	d="
M158.000000,145.583344 
	C153.975449,145.999771 149.950912,145.999542 145.463181,145.598969 
	C145.000000,144.132431 145.000000,143.066208 145.000000,142.000000 
	C145.524216,139.080673 146.048431,136.161346 146.572647,133.242020 
	C147.175339,133.016052 147.778015,132.790070 148.380692,132.564102 
	C149.169373,138.092133 149.159744,144.627106 157.595718,141.009583 
	C158.000000,142.388885 158.000000,143.777786 158.000000,145.583344 
z"/>
<path fill="#EDF3F9" opacity="1.000000" stroke="none" 
	d="
M156.927536,85.158813 
	C157.094406,82.299515 157.261276,79.440224 157.714081,76.290466 
	C158.000000,82.021156 158.000000,88.042305 157.681885,94.487213 
	C156.907928,94.275436 156.452057,93.639915 155.990723,92.728775 
	C155.966995,92.270317 155.948746,92.087494 155.942352,91.943802 
	C155.954224,91.982925 155.875732,91.960037 156.140961,91.823456 
	C156.610352,91.145950 156.814529,90.605026 157.010986,89.654198 
	C156.978027,87.882469 156.952774,86.520645 156.927536,85.158813 
z"/>
<path fill="#F5F5F5" opacity="1.000000" stroke="none" 
	d="
M155.996185,93.004402 
	C156.452057,93.639915 156.907928,94.275436 157.681885,94.955475 
	C158.000000,96.066673 158.000000,97.133339 158.000000,98.600006 
	C154.309219,99.477020 155.412094,96.243599 154.048065,94.277695 
	C153.551819,94.019875 153.106522,94.023056 153.229034,93.786758 
	C153.824493,93.336197 154.297440,93.121941 155.076080,92.941437 
	C155.586578,92.984924 155.791382,92.994659 155.996185,93.004402 
z"/>
<path fill="#D94026" opacity="1.000000" stroke="none" 
	d="
M79.964134,144.822708 
	C79.828293,144.975220 79.692444,145.127716 79.278603,145.408875 
	C78.713120,145.313477 78.425636,145.089447 78.042412,144.204330 
	C74.300140,132.202194 70.770561,120.821861 66.978683,109.529610 
	C61.760075,93.988541 56.343105,78.514084 51.009895,62.644279 
	C50.990074,61.544529 50.971470,60.811588 51.424717,60.024193 
	C70.575974,59.956707 89.255379,59.943672 107.955292,59.959351 
	C107.975807,59.988068 108.026878,60.036762 107.997665,60.275047 
	C107.968460,60.513336 107.934151,60.992252 107.674789,61.228661 
	C106.312012,64.412048 105.115822,67.328079 104.120567,70.311150 
	C98.679420,86.619865 93.233192,102.927292 87.901299,119.271881 
	C85.135681,127.749718 82.602386,136.303329 79.964134,144.822708 
z"/>
<path fill="#F26A24" opacity="1.000000" stroke="none" 
	d="
M51.011116,63.011089 
	C56.343105,78.514084 61.760075,93.988541 66.978683,109.529610 
	C70.770561,120.821861 74.300140,132.202194 77.913208,143.962753 
	C77.354332,144.126678 76.828926,143.871094 76.145142,143.368973 
	C71.475288,137.071747 67.102394,130.911560 62.424904,124.992065 
	C50.939999,110.457542 39.343674,96.010651 27.733215,81.575920 
	C22.341438,74.872581 16.812447,68.279602 11.663472,61.323460 
	C23.076220,61.006653 34.172714,60.907768 45.264599,61.089832 
	C47.190098,61.121433 49.096104,62.340496 51.011116,63.011089 
z"/>
<path fill="#F46C33" opacity="1.000000" stroke="none" 
	d="
M51.009895,62.644279 
	C49.096104,62.340496 47.190098,61.121433 45.264599,61.089832 
	C34.172714,60.907768 23.076220,61.006653 11.519148,61.027313 
	C11.057009,61.044300 10.631640,61.008656 10.418455,61.002674 
	C10.259808,60.418968 10.314346,59.841244 10.897764,59.365486 
	C24.379631,59.614620 37.332619,59.761780 50.467987,59.889992 
	C50.650372,59.871044 50.952866,60.078648 50.952866,60.078648 
	C50.971470,60.811588 50.990074,61.544529 51.009895,62.644279 
z"/>
<path fill="#F19C26" opacity="1.000000" stroke="none" 
	d="
M154.770386,92.907692 
	C154.297440,93.121941 153.824493,93.336197 152.892883,93.875237 
	C146.576202,98.441879 140.718201,102.683746 134.860199,106.925606 
	C134.345352,107.175484 133.830505,107.425362 132.935364,107.966171 
	C132.251190,108.412987 132.058197,108.656700 131.976089,108.988243 
	C131.976089,108.988243 131.998932,109.002602 131.714874,109.048836 
	C131.170898,109.363083 130.910995,109.631096 130.651093,109.899117 
	C130.183807,110.118011 129.716507,110.336914 128.798706,110.878525 
	C124.648506,114.015228 120.948807,116.829216 117.249100,119.643204 
	C117.249100,119.643196 117.110062,119.548157 116.685593,119.677765 
	C112.092751,122.840813 107.924377,125.874252 103.755997,128.907715 
	C103.293312,129.132629 102.830627,129.357544 101.908218,129.892822 
	C94.996246,134.565399 88.543999,138.927612 82.090469,142.920013 
	C82.454651,141.823212 82.704269,141.003296 83.202293,140.382706 
	C104.443001,113.914658 125.705818,87.464348 147.220398,61.000572 
	C147.644470,60.980801 147.814072,60.972309 147.983658,60.963821 
	C150.795563,68.851944 153.607468,76.740059 156.673462,84.893494 
	C156.952774,86.520645 156.978027,87.882469 156.789825,89.834808 
	C156.342834,90.936897 156.109283,91.448471 155.875732,91.960037 
	C155.875732,91.960037 155.954224,91.982925 155.682220,92.018539 
	C155.196930,92.338661 154.983658,92.623177 154.770386,92.907692 
z"/>
<path fill="#F5F5F5" opacity="1.000000" stroke="none" 
	d="
M123.000000,145.998169 
	C115.312424,145.998672 107.624847,145.999176 99.468636,145.624496 
	C99.000000,144.499557 99.000000,143.749771 99.000000,143.000000 
	C98.529610,139.420670 99.662331,137.184265 103.422806,135.897491 
	C107.530937,134.491760 111.295502,132.113098 115.299919,130.364853 
	C119.730484,128.430573 121.551422,129.640182 121.983238,134.534790 
	C122.156395,136.497543 122.285858,138.464157 122.846680,141.015976 
	C123.172096,143.068008 123.086044,144.533096 123.000000,145.998169 
z"/>
<path fill="#F5F5F5" opacity="1.000000" stroke="none" 
	d="
M123.468582,145.998840 
	C123.086044,144.533096 123.172096,143.068008 123.129074,141.301468 
	C125.423447,140.379532 127.846893,139.759079 130.637283,139.464752 
	C131.719482,140.817993 132.434753,141.845139 133.150009,142.872269 
	C133.766678,141.581512 134.383331,140.290756 135.000000,139.000000 
	C138.063629,139.999237 141.127258,140.998489 144.595444,141.998871 
	C145.000000,143.066208 145.000000,144.132431 145.000000,145.598404 
	C137.979050,145.998627 130.958099,145.999084 123.468582,145.998840 
z"/>
<path fill="#F5F4F2" opacity="1.000000" stroke="none" 
	d="
M82.091751,143.289841 
	C88.543999,138.927612 94.996246,134.565399 101.788124,130.128265 
	C102.703392,130.998566 103.279037,131.943756 103.878983,132.928879 
	C99.976845,135.389542 96.130226,137.469498 92.747154,140.137283 
	C91.573532,141.062759 91.548981,143.445404 90.999344,145.579117 
	C87.861748,145.747757 84.724403,145.499802 81.317108,144.846558 
	C81.395355,144.057465 81.743553,143.673645 82.091751,143.289841 
z"/>
<path fill="#F5F4F2" opacity="1.000000" stroke="none" 
	d="
M135.178528,107.084488 
	C140.718201,102.683746 146.576202,98.441879 152.770355,94.111542 
	C153.106522,94.023056 153.551819,94.019875 153.773727,94.036873 
	C152.689850,96.470177 151.384064,98.886490 149.741592,101.799500 
	C147.603271,103.530800 145.801636,104.765404 144.000000,106.000000 
	C141.116577,106.079025 138.999863,111.401451 135.178528,107.084488 
z"/>
<path fill="#F5F5F5" opacity="1.000000" stroke="none" 
	d="
M144.000000,106.424911 
	C145.801636,104.765404 147.603271,103.530800 149.702454,102.148041 
	C152.402069,104.663101 152.419312,109.847443 149.719406,112.066124 
	C147.612930,113.797157 145.339920,113.592308 144.222321,110.761536 
	C143.766968,109.608139 144.051895,108.162491 144.000000,106.424911 
z"/>
<path fill="#F5F4F2" opacity="1.000000" stroke="none" 
	d="
M104.201881,128.935745 
	C107.924377,125.874252 112.092751,122.840813 116.606125,119.705612 
	C116.937553,125.204521 111.915932,129.024796 104.201881,128.935745 
z"/>
<path fill="#F5F5F5" opacity="1.000000" stroke="none" 
	d="
M132.927612,122.058189 
	C131.548950,122.200043 130.420883,122.058006 129.292831,121.915962 
	C130.282562,119.775826 131.160355,117.567459 132.379562,115.567192 
	C132.568222,115.257660 135.189056,115.845123 135.206635,116.114334 
	C135.301880,117.572769 135.045822,119.091972 134.662323,120.523682 
	C134.525024,121.036285 133.693115,121.362839 132.927612,122.058189 
z"/>
<path fill="#F5F4F2" opacity="1.000000" stroke="none" 
	d="
M117.675987,119.727417 
	C120.948807,116.829216 124.648506,114.015228 128.677734,111.113007 
	C129.355652,115.277870 128.304886,118.191612 123.158066,118.125137 
	C121.480537,118.103477 119.788353,119.217194 117.675987,119.727417 
z"/>
<path fill="#F5F5F5" opacity="1.000000" stroke="none" 
	d="
M134.784851,138.744995 
	C134.383331,140.290756 133.766678,141.581512 133.150009,142.872269 
	C132.434753,141.845139 131.719482,140.817993 131.002106,139.395432 
	C132.189911,138.830002 133.379807,138.660004 134.784851,138.744995 
z"/>
<path fill="#F5F5F5" opacity="1.000000" stroke="none" 
	d="
M98.600182,143.000000 
	C99.000000,143.749771 99.000000,144.499557 99.000000,145.624161 
	C97.933212,145.999222 96.866425,145.999435 95.399818,145.624313 
	C95.000000,144.499313 95.000000,143.749649 95.000000,143.000000 
	C96.066788,143.000000 97.133575,143.000000 98.600182,143.000000 
z"/>
<path fill="#F5F5F5" opacity="1.000000" stroke="none" 
	d="
M94.658508,143.057922 
	C95.000000,143.749649 95.000000,144.499313 95.000000,145.623749 
	C94.555557,145.998795 94.111107,145.999054 93.333328,145.998444 
	C93.439011,145.036987 93.878014,144.076431 94.658508,143.057922 
z"/>
<path fill="#F5F5F5" opacity="1.000000" stroke="none" 
	d="
M126.375183,122.448883 
	C125.942825,122.336777 125.680679,122.061897 125.418533,121.787025 
	C125.532341,121.678558 125.646149,121.570091 125.759949,121.461624 
	C126.021767,121.736458 126.283585,122.011284 126.375183,122.448883 
z"/>
<path fill="#F5F4F2" opacity="1.000000" stroke="none" 
	d="
M130.931122,109.839592 
	C130.910995,109.631096 131.170898,109.363083 131.710602,109.036377 
	C131.730637,109.245140 131.470901,109.512604 130.931122,109.839592 
z"/>
<path fill="#F5F4F2" opacity="1.000000" stroke="none" 
	d="
M132.186935,108.906342 
	C132.058197,108.656700 132.251190,108.412987 132.791504,108.222565 
	C132.875519,108.457245 132.665482,108.669380 132.186935,108.906342 
z"/>
<path fill="#D8422A" opacity="1.000000" stroke="none" 
	d="
M50.285606,59.908943 
	C37.332619,59.761780 24.379631,59.614620 11.115923,59.165119 
	C16.375931,41.982601 21.940090,25.100239 27.544678,8.231309 
	C27.741093,7.640128 28.339729,7.182581 28.941563,6.361327 
	C30.148493,6.338898 31.164757,6.617893 32.576481,7.364789 
	C38.743160,25.191441 44.514385,42.550190 50.285606,59.908943 
z"/>
<path fill="#D84229" opacity="1.000000" stroke="none" 
	d="
M126.563278,6.137655 
	C127.164619,6.108460 127.765953,6.079265 128.668411,6.033242 
	C130.778717,10.417510 132.807526,14.742891 134.355774,19.233944 
	C138.942688,32.539314 143.340012,45.910046 147.343628,59.619194 
	C133.926147,60.001038 120.976509,60.018898 108.026878,60.036762 
	C108.026878,60.036762 107.975807,59.988068 108.002121,59.585556 
	C111.667351,48.318180 115.224335,37.424931 118.974846,26.598726 
	C121.355484,19.726809 124.023911,12.954587 126.563278,6.137655 
z"/>
<path fill="#F56C31" opacity="1.000000" stroke="none" 
	d="
M107.997665,60.275047 
	C120.976509,60.018898 133.926147,60.001038 147.329407,59.992409 
	C147.857285,60.153648 147.931564,60.305656 147.994751,60.710747 
	C147.814072,60.972309 147.644470,60.980801 146.755600,60.995506 
	C133.335617,60.998569 120.634880,60.995411 107.934151,60.992252 
	C107.934151,60.992252 107.968460,60.513336 107.997665,60.275047 
z"/>
<path fill="#F5F4F4" opacity="1.000000" stroke="none" 
	d="
M126.052933,6.102726 
	C124.023911,12.954587 121.355484,19.726809 118.974846,26.598726 
	C115.224335,37.424931 111.667351,48.318180 107.981606,59.556839 
	C89.255379,59.943672 70.575974,59.956707 51.424721,60.024193 
	C50.952866,60.078648 50.650372,59.871044 50.467987,59.889992 
	C44.514385,42.550190 38.743160,25.191441 32.885750,7.469185 
	C34.563740,6.737268 36.327435,6.050589 38.092175,6.047908 
	C67.242233,6.003626 96.392426,6.045345 126.052933,6.102726 
z"/>
<path fill="#F26A24" opacity="1.000000" stroke="none" 
	d="
M107.674789,61.228661 
	C120.634880,60.995411 133.335617,60.998569 146.501129,61.006790 
	C125.705818,87.464348 104.443001,113.914658 83.202293,140.382706 
	C82.704269,141.003296 82.454651,141.823212 82.090469,142.920013 
	C81.743553,143.673645 81.395355,144.057465 80.932495,144.677521 
	C80.817825,144.913773 80.392090,144.858902 80.178116,144.840805 
	C82.602386,136.303329 85.135681,127.749718 87.901299,119.271881 
	C93.233192,102.927292 98.679420,86.619865 104.120567,70.311150 
	C105.115822,67.328079 106.312012,64.412048 107.674789,61.228661 
z"/>
<path fill="#F5F4F2" opacity="1.000000" stroke="none" 
	d="
M156.140961,91.823463 
	C156.109283,91.448471 156.342834,90.936897 156.797546,90.244705 
	C156.814529,90.605026 156.610352,91.145950 156.140961,91.823463 
z"/>
<path fill="#F5F4F2" opacity="1.000000" stroke="none" 
	d="
M155.076080,92.941437 
	C154.983658,92.623177 155.196930,92.338661 155.670349,91.979416 
	C155.948746,92.087494 155.966995,92.270317 155.990723,92.728775 
	C155.791382,92.994659 155.586578,92.984924 155.076080,92.941437 
z"/>
</svg>